<svg version="1.1" viewBox="0 0 65.24 13.11" width="250" height="52" xmlns="http://www.w3.org/2000/svg"><g stroke-linecap="round" stroke-linejoin="round"><path d="m43.15 3.08a3.403 3.53 0 00-3.403 3.53 3.403 3.53 0 003.403 3.53 3.403 3.53 0 003.402-3.53 3.403 3.53 0 00-3.402-3.53zm0 .8542a2.579 2.676 0 012.579 2.676 2.579 2.676 0 01-2.579 2.676 2.579 2.676 0 01-2.58-2.676 2.579 2.676 0 012.58-2.676z" fill="#f7941e" stroke-width="2.802"/><path transform="rotate(90)" d="m3.194-54.76h2.904v.000517h.8237v-.000517h3.098v-.8232h-3.098v-2.216l3.105-1.847v-.8232l-3.127 1.86a1.861 1.916 0 00-1.839-1.626 1.861 1.916 0 00-1.86 1.915h-.00672v2.737zm.8232-.8232v-2.737h.00672a1.037 1.068 0 011.037-1.068 1.037 1.068 0 011.037 1.068v2.737z" fill="#f7941e" stroke-width="4.18"/><path transform="rotate(90)" d="m3.194-13.25h5.03a1.88 2.59 0 001.88-2.59 1.88 2.59 0 00-1.88-2.59v-.000517h-5.03v.8237h5.03a1.073 1.767 0 011.072 1.767 1.073 1.767 0 01-1.072 1.767h-5.03z" stroke-width="3.588"/><path d="m47.93 3.194v5.03a2.59 1.88 0 002.59 1.88 2.59 1.88 0 002.59-1.88h.000517v-5.03h-.8237v5.03a1.767 1.073 0 01-1.767 1.072 1.767 1.073 0 01-1.767-1.072v-5.03z" fill="#f7941e" stroke-width="3.588"/><rect transform="rotate(90)" x="3.194" y="-37.17" width="6.833" height=".8233" fill="#f7941e" stroke-width="4.182"/><rect transform="scale(-1)" x="-39.41" y="-4.017" width="5.292" height=".8233" fill="#f7941e" stroke-width="3.68"/><rect transform="matrix(.6103 -.7921 .835 .5503 0 0)" x="-2.441" y="12" width=".5744" height="3.501" stroke-width="2.271"/><path d="m26.31 3.194v6.833h4.352v-.8232h-3.528v-6.009z" stroke-width="3.338"/><rect transform="rotate(90)" x="3.194" y="-32.99" width="6.833" height=".8233" stroke-width="4.182"/><ellipse cx="8.404" cy="6.614" rx="3.403" ry="2.38e-7" fill="#979797" opacity=".5153" stroke-width="2.802"/><path d="m8.404 3.084a3.403 3.53 0 00-3.402 3.53 3.403 3.53 0 003.402 3.53 3.403 3.53 0 003.403-3.53 3.403 3.53 0 00-3.403-3.53zm0 .8542a2.579 2.676 0 012.58 2.676 2.579 2.676 0 01-2.58 2.676 2.579 2.676 0 01-2.579-2.676 2.579 2.676 0 012.579-2.676z" stroke-width="2.802"/><path transform="matrix(.3603 -.9328 1 0 0 0)" d="m-3.424 23.23h-7.325v.8237l2.223.000189v2.853l-2.223 1.602v.8237l7.325-5.278zm-1.143.8236-3.077 2.217v-2.217z" stroke-width="4.33"/></g></svg>
